# xmcd
#
# Track frame offsets: 
#        150
#        13830
#        32273
#        49843
#        62208
#        81450
#        97075
#        113450
#        135168
#        155823
#        179298
#
# Disc length: 2566 seconds
#
# Revision: 0
# Processed by: cddbd v1.5.2PL0 Copyright (c) Steve Scherf et al.
# Submitted via: ExactAudioCopy v0.99pb4
#
DISCID=8a0a040b
DTITLE=Kevin Davenport - Come to Something Good
DYEAR=1900
DGENRE=Blues
TTITLE0=Blues
TTITLE1=Death Letter
TTITLE2=Don't Think Too Much
TTITLE3=From Four 'till Late
TTITLE4=Key To The Highway
TTITLE5=Pretty Girl
TTITLE6=You Can't Get That Stuff
TTITLE7=Come Om In My Kitchen
TTITLE8=While The Blood Runs Warm
TTITLE9=Seven Days
TTITLE10=Come To Something Good
EXTD=
EXTT0=
EXTT1=
EXTT2=
EXTT3=
EXTT4=
EXTT5=
EXTT6=
EXTT7=
EXTT8=
EXTT9=
EXTT10=
PLAYORDER=
